<svg width="160" height="44" viewBox="0 0 160 44" fill="none" xmlns="http://www.w3.org/2000/svg">
  <rect width="160" height="44" rx="8" fill="#0f172a"/>
  <path d="M30 13h18c4.418 0 8 3.582 8 8s-3.582 8-8 8H30V13Zm18 10c1.105 0 2-.895 2-2s-.895-2-2-2h-8v4h8Z" fill="#38bdf8"/>
  <path d="M68 13h8l3.5 6.5L83 13h8l-7.5 16h-8L68 13Z" fill="#38bdf8"/>
  <path d="M98 13h18c4.418 0 8 3.582 8 8s-3.582 8-8 8h-18V13Zm18 10c1.105 0 2-.895 2-2s-.895-2-2-2h-8v4h8Z" fill="#38bdf8"/>
  <text x="18" y="35" fill="#e0f2fe" font-family="'Inter', 'Helvetica Neue', Arial, sans-serif" font-size="10" letter-spacing="0.08em">FREAKY FLYER DELIVERY</text>
</svg>
